<svg xmlns="http://www.w3.org/2000/svg" xmlns:xlink="http://www.w3.org/1999/xlink" 
    class="allerhande-icon recipe-header-time_icon__juUid svg svg--svg_chef" 
    viewBox="0 0 24 24" width="24" height="24">
    <use href="#svg_chef">
        <symbol id="svg_chef" viewBox="0 0 24 24">
            <defs>
                <style>.cls-2{fill:none;opacity:.05}</style>
            </defs>
            <path d="M0 0h24v24H0z" class="cls-2"></path>
            <path d="M0 0h24v24H0z" class="cls-2"></path>
            <path d="M17.194 5.631a5.564 5.564 0 00-5.2-3.6h-.043a5.084 5.084 0 
            00-2.139.419 5.731 5.731 0 00-3.02 3.193A5.382 5.382 0 002.006 11a5.9 
            5.9 0 003 4.893L5 22l14-.016V20h-2.995v-.01L7.5 20a.5.5 0 01-.5-.5.5.5 
            0 01.492-.5H13v-2H8.008a1 1 0 01-1-1v-1.043a.514.514 0 00-.349-.476 4.037 
            4.037 0 01-2.655-3.486 3.422 3.422 0 013.549-3.4 3.518 3.518 0 
            01.9.129c0-.044-.013-.085-.014-.13a3.554 3.554 0 013.55-3.557 3.553 
            3.553 0 013.553 3.55c0 .044-.011.085-.012.129a3.52 3.52 0 01.9-.13A3.442 
            3.442 0 0120 11a3.994 3.994 0 01-2.641 3.468.512.512 0 00-.348.473L17 
            19h2v-3.122A5.872 5.872 0 0022 11a5.4 5.4 0 00-4.806-5.369zM7 19z">
            </path>
        </symbol>
    </use>
</svg>