<svg xmlns="http://www.w3.org/2000/svg" xmlns:xlink="http://www.w3.org/1999/xlink" class="allerhande-icon recipe-card-properties_icon__wBmG9 svg svg--svg_time" viewBox="0 0 24 24" width="24" height="16">
    <use href="#svg_time">
        <symbol id="svg_time" viewBox="0 0 24 24">
        <defs><style></style></defs><path fill="none" d="M0 0h24v24H0z" opacity=".05"></path><path d="M13 10V6h-2v5a2 2 0 002 2h4v-2h-3a1 1 0 01-1-1zm4.92-3.4a1 1 0 001.26 0 1 1 0 000-1.57 1 1 0 00-1.55.33 1 1 0 00.26 1.21zm-5.57-2.78a1 1 0 001.26 0 1 1 0 000-1.57 1 1 0 00-1.55.33 1 1 0 00.26 1.2zm3.1.94a1 1 0 001.26 0 1 1 0 000-1.57 1 1 0 00-1.55.33 1 1 0 00.25 1.21z"></path><path d="M21.89 10.57l-1.95.5c0 .31.06.62.06.93a8 8 0 11-9-7.93v-2A10 10 0 1022 12a9.63 9.63 0 00-.11-1.43z"></path><path d="M19.54 9.23a1 1 0 001.26 0 1 1 0 000-1.57 1 1 0 00-1.51.34 1 1 0 00.25 1.23z">
        </path></symbol>
    </use></svg>